<svg width="448" height="448" viewBox="0 0 448 448" fill="none" xmlns="http://www.w3.org/2000/svg">
<path fill-rule="evenodd" clip-rule="evenodd" d="M120 0C53.7258 0 0 53.7258 0 120V328C0 394.274 53.7258 448 120 448H328C394.274 448 448 394.274 448 328V120C448 53.7258 394.274 0 328 0H120ZM160.637 333.425C162.742 333.425 164.411 332.267 164.411 330.819C164.411 329.155 162.524 327.997 160.347 328.214C158.242 328.214 156.573 329.372 156.573 330.819C156.573 332.484 158.242 333.642 160.637 333.425ZM144.96 331.109C142.782 330.675 141.331 329.01 141.839 327.563C142.347 326.115 144.452 325.392 146.339 325.898C148.516 326.549 149.895 328.214 149.46 329.661C149.024 331.109 146.847 331.833 144.96 331.109ZM170.581 329.879C170.363 328.214 171.815 326.839 173.919 326.332C176.024 326.115 177.984 327.056 178.202 328.431C178.419 329.879 176.968 331.254 174.863 331.76C172.685 332.267 170.798 331.326 170.581 329.879ZM44 225.59C44 125.209 121.008 49 221.677 49C322.347 49 404 125.209 404 225.59C404 305.851 354.79 374.533 282.21 398.56C272.992 400.225 269.653 394.507 269.653 389.803C269.653 387.843 269.677 383.237 269.709 377.068C269.773 364.562 269.871 345.633 269.871 329.3C269.871 312.292 264.21 301.436 257.532 295.719C298.105 291.159 340.855 285.587 340.855 215.747C340.855 195.917 333.742 185.929 322.129 173.119C324.016 168.415 330.185 149.092 320.242 123.978C305.073 119.202 270.161 143.519 270.161 143.519C255.645 139.466 240.04 137.367 224.581 137.367C209.121 137.367 193.516 139.466 179 143.519C179 143.519 144.089 119.274 128.919 123.978C118.976 149.019 125.145 168.415 127.032 173.119C115.419 185.857 109.903 195.844 109.903 215.747C109.903 285.369 150.839 291.232 191.411 295.719C186.185 300.495 181.468 308.529 179.798 320.108C169.419 324.885 142.782 332.918 126.887 304.982C116.944 287.758 98.871 286.31 98.871 286.31C81.0887 286.093 97.7097 297.456 97.7097 297.456C109.613 302.884 117.887 323.944 117.887 323.944C128.556 356.367 179.363 345.511 179.363 345.511C179.363 355.359 179.454 369.217 179.519 378.975C179.554 384.277 179.581 388.368 179.581 389.948C179.581 394.652 176.315 400.37 167.024 398.705C94.6613 374.533 44 305.851 44 225.59ZM115.056 302.377C113.823 301.002 113.605 299.337 114.548 298.614C115.492 297.673 117.161 298.179 118.323 299.337C119.556 300.712 119.774 302.377 118.831 303.101C117.887 304.042 116.218 303.535 115.056 302.377ZM108.379 295.574C106.927 294.85 106.202 293.692 106.71 292.751C107.218 292.028 108.379 291.811 109.831 292.245C111.282 292.969 112.008 294.126 111.5 295.067C110.992 296.081 109.54 296.298 108.379 295.574ZM131.169 323.003C129.5 321.628 129.065 319.457 130.226 318.516C131.169 317.358 133.347 317.575 134.944 319.24C136.395 320.615 136.831 322.786 135.887 323.727C134.944 324.885 132.839 324.668 131.169 323.003ZM121.952 312.147C120.79 310.483 120.79 308.601 121.952 307.877C123.113 306.936 125 307.66 126.016 309.325C127.177 310.989 127.177 312.871 126.016 313.812C125.073 314.536 123.113 313.812 121.952 312.147Z" fill="#BDCBE3"/>
</svg>
