<svg width="448" height="448" viewBox="0 0 448 448" fill="none" xmlns="http://www.w3.org/2000/svg">
<path fill-rule="evenodd" clip-rule="evenodd" d="M120 0C53.7258 0 0 53.7258 0 120V328C0 394.274 53.7258 448 120 448H328C394.274 448 448 394.274 448 328V120C448 53.7258 394.274 0 328 0H120ZM82.8232 370H143.361V175.047H82.8232V370ZM78 113.06C78 132.419 93.7015 148.453 113.06 148.453C132.411 148.453 148.119 132.419 148.119 113.06C148.119 103.762 144.425 94.844 137.85 88.2689C131.275 81.6938 122.358 78 113.06 78C103.761 78 94.8437 81.6938 88.2687 88.2689C81.6938 94.844 78 103.762 78 113.06ZM309.527 370H369.935H370V262.909C370 210.504 358.737 170.158 297.469 170.158C268.015 170.158 248.273 186.323 240.19 201.64H239.343V175.047H181.282V370H241.755V273.468C241.755 248.048 246.578 223.475 278.053 223.475C309.071 223.475 309.527 252.48 309.527 275.098V370Z" fill="#BDCBE3"/>
</svg>
