<svg width="448" height="448" viewBox="0 0 448 448" fill="none" xmlns="http://www.w3.org/2000/svg">
<path fill-rule="evenodd" clip-rule="evenodd" d="M120 0C53.7258 0 0 53.7258 0 120V328C0 394.274 53.7258 448 120 448H328C394.274 448 448 394.274 448 328V120C448 53.7258 394.274 0 328 0H120ZM232.302 53.5025L390.434 158.925C394.489 161.627 396.999 166.455 397 171.281V276.703C397 281.53 394.49 286.358 390.435 289.06L232.302 394.497C226.856 397.849 221.095 397.819 215.698 394.497L57.5652 289.06C53.5098 286.357 51 281.53 51 276.703V171.281C51 166.455 53.5098 161.627 57.5645 158.925L215.697 53.5025C221.144 50.1506 226.904 50.181 232.302 53.5025ZM355.294 171.281L238.867 93.6623V162.979L303.356 206.036L355.294 171.281ZM209.133 162.979V93.6623L92.7051 171.281L144.644 206.036L209.133 162.979ZM117.999 223.993L80.7343 199.085V248.9L117.999 223.993ZM92.7051 276.704L209.133 354.323V285.006L144.644 241.949L92.7051 276.704ZM171.481 223.993L224 259.133L276.518 223.993L224 188.852L171.481 223.993ZM238.867 285.006V354.323L355.294 276.704L303.356 241.949L238.867 285.006ZM330 223.993L367.265 248.9V199.085L330 223.993Z" fill="#BDCBE3"/>
</svg>
