<svg width="448" height="448" viewBox="0 0 448 448" fill="none" xmlns="http://www.w3.org/2000/svg">
<path fill-rule="evenodd" clip-rule="evenodd" d="M120 0C53.7258 0 0 53.7258 0 120V328C0 394.274 53.7258 448 120 448H328C394.274 448 448 394.274 448 328V120C448 53.7258 394.274 0 328 0H120ZM135.348 224C135.348 174.897 174.946 135.29 224.039 135.29C273.131 135.29 312.729 174.897 312.729 224C312.729 273.103 273.131 312.71 224.039 312.71C174.946 312.71 135.348 273.103 135.348 224ZM166.378 224C166.378 255.809 192.314 281.673 224.039 281.673C255.763 281.673 281.699 255.809 281.699 224C281.699 192.191 255.84 166.327 224.039 166.327C192.237 166.327 166.378 192.191 166.378 224ZM316.357 152.353C327.781 152.353 337.043 143.165 337.043 131.661C337.043 120.235 327.781 110.97 316.357 110.97C304.933 110.97 295.67 120.235 295.67 131.661C295.67 143.088 304.856 152.353 316.357 152.353ZM367.842 80.1647C388.143 100.393 394.472 124.944 395.784 152.661C397.405 181.228 397.405 266.772 395.784 295.339C394.395 323.056 388.065 347.607 367.842 367.835C347.618 388.141 323.072 394.471 295.361 395.784C266.801 397.405 181.199 397.405 152.639 395.784C124.928 394.394 100.459 388.063 80.1582 367.835C59.8574 347.607 53.5279 323.056 52.2157 295.339C50.5948 266.772 50.5948 181.151 52.2157 152.584C53.6051 124.867 59.8574 100.316 80.1582 80.0875C100.459 59.8594 125.005 53.5285 152.639 52.216C181.199 50.5947 266.801 50.5947 295.361 52.216C323.072 53.6057 347.618 59.9366 367.842 80.1647ZM326.005 358.879C341.212 352.78 352.867 341.122 358.888 325.99C366.634 306.52 366.203 263.934 365.923 236.327C365.877 231.748 365.835 227.581 365.835 224C365.835 220.418 365.877 216.252 365.924 211.674C366.203 184.083 366.634 141.545 358.888 122.01C352.79 106.801 341.134 95.1427 326.005 89.1206C306.479 81.4148 263.696 81.8252 236.104 82.09C231.627 82.1329 227.551 82.172 224.039 82.172C220.458 82.172 216.292 82.1298 211.716 82.0834C184.13 81.8039 141.602 81.3729 122.072 89.1206C106.866 95.2199 95.21 106.878 89.1893 122.01C81.4852 141.541 81.8956 184.334 82.1602 211.932C82.2032 216.41 82.2423 220.487 82.2423 224C82.2423 227.582 82.2001 231.748 82.1537 236.326C81.8742 263.917 81.4433 306.455 89.1893 325.99C95.2872 341.199 106.943 352.857 122.072 358.879C141.598 366.585 184.382 366.175 211.974 365.91C216.45 365.867 220.526 365.828 224.039 365.828C227.619 365.828 231.785 365.87 236.362 365.917C263.947 366.196 306.475 366.627 326.005 358.879Z" fill="#BDCBE3"/>
</svg>
